<svg version="1.1" viewBox="0.0 0.0 960.0 540.0" fill="none" stroke="none" stroke-linecap="square" stroke-miterlimit="10" xmlns:xlink="http://www.w3.org/1999/xlink" xmlns="http://www.w3.org/2000/svg"><clipPath id="g89aab048fd_0_119.0"><path d="m0 0l960.0 0l0 540.0l-960.0 0l0 -540.0z" clip-rule="nonzero"/></clipPath><g clip-path="url(#g89aab048fd_0_119.0)"><path fill="#ffffff" d="m0 0l960.0 0l0 540.0l-960.0 0z" fill-rule="evenodd"/><path fill="#000000" fill-opacity="0.0" d="m380.37796 41.401573l199.24411 0l0 47.874016l-199.24411 0z" fill-rule="evenodd"/><path fill="#000000" d="m395.3594 76.00157l0 -19.078125l2.59375 0l10.015625 14.984375l0 -14.984375l2.421875 0l0 19.078125l-2.59375 0l-10.015625 -15.0l0 15.0l-2.421875 0zm28.000275 -1.703125q-1.3125 1.109375 -2.515625 1.5625q-1.203125 0.453125 -2.578125 0.453125q-2.28125 0 -3.5 -1.109375q-1.21875 -1.109375 -1.21875 -2.84375q0 -1.015625 0.453125 -1.859375q0.46875 -0.84375 1.21875 -1.34375q0.75 -0.515625 1.6875 -0.765625q0.6875 -0.1875 2.078125 -0.359375q2.828125 -0.328125 4.171875 -0.796875q0.015625 -0.484375 0.015625 -0.625q0 -1.421875 -0.65625 -2.015625q-0.90625 -0.796875 -2.671875 -0.796875q-1.65625 0 -2.453125 0.59375q-0.78125 0.578125 -1.15625 2.046875l-2.296875 -0.3125q0.3125 -1.46875 1.03125 -2.375q0.71875 -0.90625 2.0625 -1.390625q1.359375 -0.5 3.140625 -0.5q1.78125 0 2.875 0.421875q1.109375 0.421875 1.625 1.046875q0.53125 0.625 0.734375 1.59375q0.125 0.59375 0.125 2.15625l0 3.125q0 3.265625 0.140625 4.140625q0.15625 0.859375 0.59375 1.65625l-2.4375 0q-0.375 -0.734375 -0.46875 -1.703125zm-0.203125 -5.234375q-1.265625 0.515625 -3.828125 0.890625q-1.4375 0.203125 -2.046875 0.46875q-0.59375 0.25 -0.921875 0.75q-0.3125 0.5 -0.3125 1.125q0 0.9375 0.703125 1.5625q0.703125 0.625 2.078125 0.625q1.34375 0 2.390625 -0.59375q1.0625 -0.59375 1.5625 -1.625q0.375 -0.796875 0.375 -2.34375l0 -0.859375zm5.996826 6.9375l0 -13.828125l2.109375 0l0 1.9375q0.640625 -1.015625 1.71875 -1.625q1.09375 -0.625 2.46875 -0.625q1.53125 0 2.515625 0.640625q0.984375 0.640625 1.390625 1.78125q1.640625 -2.421875 4.265625 -2.421875q2.0625 0 3.15625 1.140625q1.109375 1.140625 1.109375 3.515625l0 9.484375l-2.328125 0l0 -8.703125q0 -1.40625 -0.234375 -2.015625q-0.21875 -0.625 -0.828125 -1.0q-0.59375 -0.390625 -1.390625 -0.390625q-1.46875 0 -2.4375 0.96875q-0.953125 0.96875 -0.953125 3.109375l0 8.03125l-2.34375 0l0 -8.984375q0 -1.5625 -0.578125 -2.34375q-0.5625 -0.78125 -1.875 -0.78125q-0.984375 0 -1.828125 0.53125q-0.828125 0.515625 -1.21875 1.515625q-0.375 1.0 -0.375 2.890625l0 7.171875l-2.34375 0zm31.673615 -4.453125l2.421875 0.296875q-0.578125 2.125 -2.125 3.296875q-1.546875 1.171875 -3.953125 1.171875q-3.03125 0 -4.8125 -1.859375q-1.78125 -1.875 -1.78125 -5.25q0 -3.484375 1.796875 -5.40625q1.796875 -1.9375 4.671875 -1.9375q2.765625 0 4.515625 1.890625q1.765625 1.890625 1.765625 5.3125q0 0.203125 -0.015625 0.625l-10.3125 0q0.140625 2.28125 1.296875 3.5q1.15625 1.203125 2.890625 1.203125q1.28125 0 2.1875 -0.671875q0.921875 -0.6875 1.453125 -2.171875zm-7.6875 -3.78125l7.71875 0q-0.15625 -1.75 -0.890625 -2.625q-1.125 -1.34375 -2.90625 -1.34375q-1.609375 0 -2.71875 1.078125q-1.09375 1.078125 -1.203125 2.890625zm13.668671 8.234375l0 -2.671875l2.65625 0l0 2.671875q0 1.46875 -0.515625 2.375q-0.515625 0.90625 -1.65625 1.40625l-0.640625 -1.015625q0.734375 -0.3125 1.078125 -0.953125q0.359375 -0.625 0.40625 -1.8125l-1.328125 0zm14.49942 0l0 -19.078125l6.5625 0q2.234375 0 3.40625 0.265625q1.640625 0.375 2.796875 1.375q1.5 1.265625 2.25 3.25q0.75 1.984375 0.75 4.546875q0 2.171875 -0.515625 3.859375q-0.5 1.671875 -1.296875 2.78125q-0.78125 1.09375 -1.734375 1.71875q-0.9375 0.625 -2.28125 0.953125q-1.328125 0.328125 -3.0625 0.328125l-6.875 0zm2.515625 -2.25l4.078125 0q1.890625 0 2.953125 -0.34375q1.078125 -0.359375 1.71875 -1.0q0.890625 -0.890625 1.390625 -2.40625q0.515625 -1.515625 0.515625 -3.6875q0 -2.984375 -0.984375 -4.59375q-0.984375 -1.609375 -2.390625 -2.15625q-1.015625 -0.390625 -3.265625 -0.390625l-4.015625 0l0 14.578125zm25.89093 -2.203125l2.4218445 0.296875q-0.5780945 2.125 -2.1249695 3.296875q-1.546875 1.171875 -3.953125 1.171875q-3.03125 0 -4.8125 -1.859375q-1.78125 -1.875 -1.78125 -5.25q0 -3.484375 1.796875 -5.40625q1.796875 -1.9375 4.671875 -1.9375q2.765625 0 4.515625 1.890625q1.7655945 1.890625 1.7655945 5.3125q0 0.203125 -0.015625 0.625l-10.3124695 0q0.140625 2.28125 1.296875 3.5q1.15625 1.203125 2.890625 1.203125q1.28125 0 2.1875 -0.671875q0.921875 -0.6875 1.453125 -2.171875zm-7.6875 -3.78125l7.71875 0q-0.15625 -1.75 -0.890625 -2.625q-1.125 -1.34375 -2.90625 -1.34375q-1.609375 0 -2.71875 1.078125q-1.09375 1.078125 -1.203125 2.890625zm12.621796 9.375l2.28125 0.34375q0.140625 1.046875 0.796875 1.53125q0.859375 0.65625 2.375 0.65625q1.625 0 2.5 -0.65625q0.890625 -0.640625 1.203125 -1.8125q0.1875 -0.71875 0.171875 -3.015625q-1.53125 1.8125 -3.828125 1.8125q-2.84375 0 -4.40625 -2.046875q-1.5625 -2.0625 -1.5625 -4.9375q0 -1.984375 0.71875 -3.65625q0.71875 -1.671875 2.078125 -2.578125q1.359375 -0.921875 3.1875 -0.921875q2.453125 0 4.03125 1.984375l0 -1.671875l2.171875 0l0 11.953125q0 3.234375 -0.65625 4.578125q-0.65625 1.34375 -2.09375 2.125q-1.421875 0.78125 -3.5 0.78125q-2.46875 0 -4.0 -1.109375q-1.515625 -1.109375 -1.46875 -3.359375zm1.9375 -8.296875q0 2.71875 1.078125 3.96875q1.078125 1.25 2.703125 1.25q1.625 0 2.71875 -1.234375q1.09375 -1.25 1.09375 -3.90625q0 -2.546875 -1.125 -3.828125q-1.125 -1.296875 -2.71875 -1.296875q-1.5625 0 -2.65625 1.28125q-1.09375 1.265625 -1.09375 3.765625zm13.293701 7.15625l0 -13.828125l2.109375 0l0 2.09375q0.796875 -1.46875 1.484375 -1.9375q0.6875 -0.46875 1.5 -0.46875q1.1875 0 2.40625 0.765625l-0.796875 2.171875q-0.859375 -0.515625 -1.71875 -0.515625q-0.765625 0 -1.390625 0.46875q-0.609375 0.453125 -0.859375 1.28125q-0.390625 1.25 -0.390625 2.734375l0 7.234375l-2.34375 0zm18.361084 -4.453125l2.421875 0.296875q-0.578125 2.125 -2.125 3.296875q-1.546875 1.171875 -3.953125 1.171875q-3.03125 0 -4.8125 -1.859375q-1.78125 -1.875 -1.78125 -5.25q0 -3.484375 1.796875 -5.40625q1.796875 -1.9375 4.671875 -1.9375q2.765625 0 4.515625 1.890625q1.765625 1.890625 1.765625 5.3125q0 0.203125 -0.015625 0.625l-10.3125 0q0.140625 2.28125 1.296875 3.5q1.15625 1.203125 2.890625 1.203125q1.28125 0 2.1875 -0.671875q0.921875 -0.6875 1.453125 -2.171875zm-7.6875 -3.78125l7.71875 0q-0.15625 -1.75 -0.890625 -2.625q-1.125 -1.34375 -2.90625 -1.34375q-1.609375 0 -2.71875 1.078125q-1.09375 1.078125 -1.203125 2.890625zm22.512451 3.78125l2.421875 0.296875q-0.578125 2.125 -2.125 3.296875q-1.546875 1.171875 -3.953125 1.171875q-3.03125 0 -4.8125 -1.859375q-1.78125 -1.875 -1.78125 -5.25q0 -3.484375 1.796875 -5.40625q1.796875 -1.9375 4.671875 -1.9375q2.765625 0 4.515625 1.890625q1.765625 1.890625 1.765625 5.3125q0 0.203125 -0.015625 0.625l-10.3125 0q0.140625 2.28125 1.296875 3.5q1.15625 1.203125 2.890625 1.203125q1.28125 0 2.1875 -0.671875q0.921875 -0.6875 1.453125 -2.171875zm-7.6875 -3.78125l7.71875 0q-0.15625 -1.75 -0.890625 -2.625q-1.125 -1.34375 -2.90625 -1.34375q-1.609375 0 -2.71875 1.078125q-1.09375 1.078125 -1.203125 2.890625z" fill-rule="nonzero"/><path fill="#eeeeee" d="m290.4567 89.27559l379.08664 0l0 54.330704l-379.08664 0z" fill-rule="evenodd"/><path stroke="#595959" stroke-width="1.0" stroke-linejoin="round" stroke-linecap="butt" d="m290.4567 89.27559l379.08664 0l0 54.330704l-379.08664 0z" fill-rule="evenodd"/><path fill="#000000" d="m324.19083 116.064064l0 -17.0625l3.609375 0l0 1.359375l-1.96875 0l0 14.34375l1.96875 0l0 1.359375l-3.609375 0zm5.3551636 -3.703125l0 -13.359375l4.609375 0q1.546875 0 2.375 0.203125q1.140625 0.25 1.953125 0.953125q1.0625 0.890625 1.578125 2.28125q0.53125 1.390625 0.53125 3.171875q0 1.515625 -0.359375 2.703125q-0.359375 1.171875 -0.921875 1.9375q-0.546875 0.765625 -1.203125 1.21875q-0.65625 0.4375 -1.59375 0.671875q-0.9375 0.21875 -2.140625 0.21875l-4.828125 0zm1.765625 -1.578125l2.859375 0q1.3125 0 2.0625 -0.234375q0.75 -0.25 1.203125 -0.703125q0.625 -0.625 0.96875 -1.6875q0.359375 -1.0625 0.359375 -2.578125q0 -2.09375 -0.6875 -3.21875q-0.6875 -1.125 -1.671875 -1.5q-0.703125 -0.28125 -2.28125 -0.28125l-2.8125 0l0 10.203125zm11.504211 -9.890625l0 -1.890625l1.640625 0l0 1.890625l-1.640625 0zm0 11.46875l0 -9.671875l1.640625 0l0 9.671875l-1.640625 0zm3.488556 -2.890625l1.625 -0.25q0.125 0.96875 0.75 1.5q0.625 0.515625 1.75 0.515625q1.125 0 1.671875 -0.453125q0.546875 -0.46875 0.546875 -1.09375q0 -0.546875 -0.484375 -0.875q-0.328125 -0.21875 -1.671875 -0.546875q-1.8125 -0.46875 -2.515625 -0.796875q-0.6875 -0.328125 -1.046875 -0.90625q-0.359375 -0.59375 -0.359375 -1.3125q0 -0.640625 0.296875 -1.1875q0.296875 -0.5625 0.8125 -0.921875q0.375 -0.28125 1.03125 -0.46875q0.671875 -0.203125 1.421875 -0.203125q1.140625 0 2.0 0.328125q0.859375 0.328125 1.265625 0.890625q0.421875 0.5625 0.578125 1.5l-1.609375 0.21875q-0.109375 -0.75 -0.640625 -1.171875q-0.515625 -0.421875 -1.46875 -0.421875q-1.140625 0 -1.625 0.375q-0.46875 0.375 -0.46875 0.875q0 0.3125 0.1875 0.578125q0.203125 0.265625 0.640625 0.4375q0.234375 0.09375 1.4375 0.421875q1.75 0.453125 2.4375 0.75q0.6875 0.296875 1.078125 0.859375q0.390625 0.5625 0.390625 1.40625q0 0.828125 -0.484375 1.546875q-0.46875 0.71875 -1.375 1.125q-0.90625 0.390625 -2.046875 0.390625q-1.875 0 -2.875 -0.78125q-0.984375 -0.78125 -1.25 -2.328125zm9.328125 0l1.625 -0.25q0.125 0.96875 0.75 1.5q0.625 0.515625 1.75 0.515625q1.125 0 1.671875 -0.453125q0.546875 -0.46875 0.546875 -1.09375q0 -0.546875 -0.484375 -0.875q-0.328125 -0.21875 -1.671875 -0.546875q-1.8125 -0.46875 -2.515625 -0.796875q-0.6875 -0.328125 -1.046875 -0.90625q-0.359375 -0.59375 -0.359375 -1.3125q0 -0.640625 0.296875 -1.1875q0.296875 -0.5625 0.8125 -0.921875q0.375 -0.28125 1.03125 -0.46875q0.671875 -0.203125 1.421875 -0.203125q1.140625 0 2.0 0.328125q0.859375 0.328125 1.265625 0.890625q0.421875 0.5625 0.578125 1.5l-1.609375 0.21875q-0.109375 -0.75 -0.640625 -1.171875q-0.515625 -0.421875 -1.46875 -0.421875q-1.140625 0 -1.625 0.375q-0.46875 0.375 -0.46875 0.875q0 0.3125 0.1875 0.578125q0.203125 0.265625 0.640625 0.4375q0.234375 0.09375 1.4375 0.421875q1.75 0.453125 2.4375 0.75q0.6875 0.296875 1.078125 0.859375q0.390625 0.5625 0.390625 1.40625q0 0.828125 -0.484375 1.546875q-0.46875 0.71875 -1.375 1.125q-0.90625 0.390625 -2.046875 0.390625q-1.875 0 -2.875 -0.78125q-0.984375 -0.78125 -1.25 -2.328125zm16.609375 -0.21875l1.6875 0.203125q-0.40625 1.484375 -1.484375 2.3125q-1.078125 0.8125 -2.765625 0.8125q-2.125 0 -3.375 -1.296875q-1.234375 -1.3125 -1.234375 -3.671875q0 -2.453125 1.25 -3.796875q1.265625 -1.34375 3.265625 -1.34375q1.9375 0 3.15625 1.328125q1.234375 1.3125 1.234375 3.703125q0 0.15625 0 0.4375l-7.21875 0q0.09375 1.59375 0.90625 2.453125q0.8125 0.84375 2.015625 0.84375q0.90625 0 1.546875 -0.46875q0.640625 -0.484375 1.015625 -1.515625zm-5.390625 -2.65625l5.40625 0q-0.109375 -1.21875 -0.625 -1.828125q-0.78125 -0.953125 -2.03125 -0.953125q-1.125 0 -1.90625 0.765625q-0.765625 0.75 -0.84375 2.015625zm9.125732 5.765625l0 -9.671875l1.46875 0l0 1.46875q0.5625 -1.03125 1.03125 -1.359375q0.484375 -0.328125 1.0625 -0.328125q0.828125 0 1.6875 0.53125l-0.5625 1.515625q-0.609375 -0.359375 -1.203125 -0.359375q-0.546875 0 -0.96875 0.328125q-0.421875 0.328125 -0.609375 0.890625q-0.28125 0.875 -0.28125 1.921875l0 5.0625l-1.625 0zm9.806427 -1.46875l0.234375 1.453125q-0.6875 0.140625 -1.234375 0.140625q-0.890625 0 -1.390625 -0.28125q-0.484375 -0.28125 -0.6875 -0.734375q-0.203125 -0.46875 -0.203125 -1.9375l0 -5.578125l-1.203125 0l0 -1.265625l1.203125 0l0 -2.390625l1.625 -0.984375l0 3.375l1.65625 0l0 1.265625l-1.65625 0l0 5.671875q0 0.6875 0.078125 0.890625q0.09375 0.203125 0.28125 0.328125q0.203125 0.109375 0.578125 0.109375q0.265625 0 0.71875 -0.0625zm7.9176636 0.28125q-0.921875 0.765625 -1.765625 1.09375q-0.828125 0.3125 -1.796875 0.3125q-1.59375 0 -2.453125 -0.78125q-0.859375 -0.78125 -0.859375 -1.984375q0 -0.71875 0.328125 -1.296875q0.328125 -0.59375 0.84375 -0.9375q0.53125 -0.359375 1.1875 -0.546875q0.46875 -0.125 1.453125 -0.25q1.984375 -0.234375 2.921875 -0.5625q0.015625 -0.34375 0.015625 -0.421875q0 -1.0 -0.46875 -1.421875q-0.625 -0.546875 -1.875 -0.546875q-1.15625 0 -1.703125 0.40625q-0.546875 0.40625 -0.8125 1.421875l-1.609375 -0.21875q0.21875 -1.015625 0.71875 -1.640625q0.5 -0.640625 1.453125 -0.984375q0.953125 -0.34375 2.1875 -0.34375q1.25 0 2.015625 0.296875q0.78125 0.28125 1.140625 0.734375q0.375 0.4375 0.515625 1.109375q0.078125 0.421875 0.078125 1.515625l0 2.1875q0 2.28125 0.109375 2.890625q0.109375 0.59375 0.40625 1.15625l-1.703125 0q-0.265625 -0.515625 -0.328125 -1.1875zm-0.140625 -3.671875q-0.890625 0.375 -2.671875 0.625q-1.015625 0.140625 -1.4375 0.328125q-0.421875 0.1875 -0.65625 0.53125q-0.21875 0.34375 -0.21875 0.78125q0 0.65625 0.5 1.09375q0.5 0.4375 1.453125 0.4375q0.9375 0 1.671875 -0.40625q0.75 -0.421875 1.09375 -1.140625q0.265625 -0.5625 0.265625 -1.640625l0 -0.609375zm7.7819824 3.390625l0.234375 1.453125q-0.6875 0.140625 -1.234375 0.140625q-0.890625 0 -1.390625 -0.28125q-0.484375 -0.28125 -0.6875 -0.734375q-0.203125 -0.46875 -0.203125 -1.9375l0 -5.578125l-1.203125 0l0 -1.265625l1.203125 0l0 -2.390625l1.625 -0.984375l0 3.375l1.65625 0l0 1.265625l-1.65625 0l0 5.671875q0 0.6875 0.078125 0.890625q0.09375 0.203125 0.28125 0.328125q0.203125 0.109375 0.578125 0.109375q0.265625 0 0.71875 -0.0625zm1.6051636 -10.0l0 -1.890625l1.640625 0l0 1.890625l-1.640625 0zm0 11.46875l0 -9.671875l1.640625 0l0 9.671875l-1.640625 0zm3.5354614 -4.84375q0 -2.6875 1.484375 -3.96875q1.25 -1.078125 3.046875 -1.078125q2.0 0 3.265625 1.3125q1.265625 1.296875 1.265625 3.609375q0 1.859375 -0.5625 2.9375q-0.5625 1.0625 -1.640625 1.65625q-1.0625 0.59375 -2.328125 0.59375q-2.03125 0 -3.28125 -1.296875q-1.25 -1.3125 -1.25 -3.765625zm1.6875 0q0 1.859375 0.796875 2.796875q0.8125 0.921875 2.046875 0.921875q1.21875 0 2.03125 -0.921875q0.8125 -0.9375 0.8125 -2.84375q0 -1.796875 -0.8125 -2.71875q-0.8125 -0.921875 -2.03125 -0.921875q-1.234375 0 -2.046875 0.921875q-0.796875 0.90625 -0.796875 2.765625zm9.297577 4.84375l0 -9.671875l1.46875 0l0 1.375q1.0625 -1.59375 3.078125 -1.59375q0.875 0 1.609375 0.3125q0.734375 0.3125 1.09375 0.828125q0.375 0.5 0.515625 1.203125q0.09375 0.453125 0.09375 1.59375l0 5.953125l-1.640625 0l0 -5.890625q0 -1.0 -0.203125 -1.484375q-0.1875 -0.5 -0.671875 -0.796875q-0.484375 -0.296875 -1.140625 -0.296875q-1.046875 0 -1.8125 0.671875q-0.75 0.65625 -0.75 2.515625l0 5.28125l-1.640625 0zm18.831177 0l0 -11.78125l-4.40625 0l0 -1.578125l10.578125 0l0 1.578125l-4.40625 0l0 11.78125l-1.765625 0zm7.0939026 -11.46875l0 -1.890625l1.640625 0l0 1.890625l-1.640625 0zm0 11.46875l0 -9.671875l1.640625 0l0 9.671875l-1.640625 0zm7.722931 -1.46875l0.234375 1.453125q-0.6875 0.140625 -1.234375 0.140625q-0.890625 0 -1.390625 -0.28125q-0.484375 -0.28125 -0.6875 -0.734375q-0.203125 -0.46875 -0.203125 -1.9375l0 -5.578125l-1.203125 0l0 -1.265625l1.203125 0l0 -2.390625l1.625 -0.984375l0 3.375l1.65625 0l0 1.265625l-1.65625 0l0 5.671875q0 0.6875 0.078125 0.890625q0.09375 0.203125 0.28125 0.328125q0.203125 0.109375 0.578125 0.109375q0.265625 0 0.71875 -0.0625zm1.5583191 1.46875l0 -13.359375l1.640625 0l0 13.359375l-1.640625 0zm10.816681 -3.109375l1.6875 0.203125q-0.40625 1.484375 -1.484375 2.3125q-1.078125 0.8125 -2.765625 0.8125q-2.125 0 -3.375 -1.296875q-1.234375 -1.3125 -1.234375 -3.671875q0 -2.453125 1.25 -3.796875q1.265625 -1.34375 3.265625 -1.34375q1.9375 0 3.15625 1.328125q1.234375 1.3125 1.234375 3.703125q0 0.15625 0 0.4375l-7.21875 0q0.09375 1.59375 0.90625 2.453125q0.8125 0.84375 2.015625 0.84375q0.90625 0 1.546875 -0.46875q0.640625 -0.484375 1.015625 -1.515625zm-5.390625 -2.65625l5.40625 0q-0.109375 -1.21875 -0.625 -1.828125q-0.78125 -0.953125 -2.03125 -0.953125q-1.125 0 -1.90625 0.765625q-0.765625 0.75 -0.84375 2.015625zm17.449646 9.6875q-1.359375 -1.703125 -2.296875 -4.0q-0.9375 -2.296875 -0.9375 -4.765625q0 -2.15625 0.703125 -4.140625q0.828125 -2.3125 2.53125 -4.59375l1.171875 0q-1.09375 1.890625 -1.453125 2.703125q-0.546875 1.25 -0.875 2.625q-0.390625 1.703125 -0.390625 3.421875q0 4.375 2.71875 8.75l-1.171875 0zm3.478302 -3.921875l0 -8.40625l-1.453125 0l0 -1.265625l1.453125 0l0 -1.03125q0 -0.96875 0.171875 -1.453125q0.234375 -0.640625 0.828125 -1.03125q0.59375 -0.390625 1.671875 -0.390625q0.6875 0 1.53125 0.15625l-0.25 1.4375q-0.5 -0.09375 -0.953125 -0.09375q-0.75 0 -1.0625 0.328125q-0.3125 0.3125 -0.3125 1.1875l0 0.890625l1.890625 0l0 1.265625l-1.890625 0l0 8.40625l-1.625 0zm4.183319 -4.84375q0 -2.6875 1.484375 -3.96875q1.25 -1.078125 3.046875 -1.078125q2.0 0 3.265625 1.3125q1.265625 1.296875 1.265625 3.609375q0 1.859375 -0.5625 2.9375q-0.5625 1.0625 -1.640625 1.65625q-1.0625 0.59375 -2.328125 0.59375q-2.03125 0 -3.28125 -1.296875q-1.25 -1.3125 -1.25 -3.765625zm1.6875 0q0 1.859375 0.796875 2.796875q0.8125 0.921875 2.046875 0.921875q1.21875 0 2.03125 -0.921875q0.8125 -0.9375 0.8125 -2.84375q0 -1.796875 -0.8125 -2.71875q-0.8125 -0.921875 -2.03125 -0.921875q-1.234375 0 -2.046875 0.921875q-0.796875 0.90625 -0.796875 2.765625zm9.281952 4.84375l0 -9.671875l1.46875 0l0 1.46875q0.5625 -1.03125 1.03125 -1.359375q0.484375 -0.328125 1.0625 -0.328125q0.828125 0 1.6875 0.53125l-0.5625 1.515625q-0.609375 -0.359375 -1.203125 -0.359375q-0.546875 0 -0.96875 0.328125q-0.421875 0.328125 -0.609375 0.890625q-0.28125 0.875 -0.28125 1.921875l0 5.0625l-1.625 0zm11.614746 0l0 -13.359375l5.046875 0q1.3280945 0 2.0312195 0.125q0.96875 0.171875 1.640625 0.640625q0.671875 0.453125 1.078125 1.28125q0.40625 0.828125 0.40625 1.828125q0 1.703125 -1.09375 2.890625q-1.078125 1.171875 -3.9218445 1.171875l-3.421875 0l0 5.421875l-1.765625 0zm1.765625 -7.0l3.453125 0q1.7187195 0 2.4374695 -0.640625q0.71875 -0.640625 0.71875 -1.796875q0 -0.84375 -0.421875 -1.4375q-0.421875 -0.59375 -1.125 -0.78125q-0.4375 -0.125 -1.6405945 -0.125l-3.421875 0l0 4.78125zm10.474823 7.0l0 -13.359375l1.640625 0l0 4.796875q1.140625 -1.328125 2.890625 -1.328125q1.078125 0 1.859375 0.421875q0.796875 0.421875 1.140625 1.171875q0.34375 0.75 0.34375 2.171875l0 6.125l-1.640625 0l0 -6.125q0 -1.234375 -0.53125 -1.796875q-0.53125 -0.5625 -1.515625 -0.5625q-0.71875 0 -1.359375 0.390625q-0.640625 0.375 -0.921875 1.015625q-0.265625 0.640625 -0.265625 1.78125l0 5.296875l-1.640625 0zm10.578857 0l0 -13.359375l4.609375 0q1.546875 0 2.375 0.203125q1.140625 0.25 1.953125 0.953125q1.0625 0.890625 1.578125 2.28125q0.53125 1.390625 0.53125 3.171875q0 1.515625 -0.359375 2.703125q-0.359375 1.171875 -0.921875 1.9375q-0.546875 0.765625 -1.203125 1.21875q-0.65625 0.4375 -1.59375 0.671875q-0.9375 0.21875 -2.140625 0.21875l-4.828125 0zm1.765625 -1.578125l2.859375 0q1.3125 0 2.0625 -0.234375q0.75 -0.25 1.203125 -0.703125q0.625 -0.625 0.96875 -1.6875q0.359375 -1.0625 0.359375 -2.578125q0 -2.09375 -0.6875 -3.21875q-0.6875 -1.125 -1.671875 -1.5q-0.703125 -0.28125 -2.28125 -0.28125l-2.8125 0l0 10.203125zm16.671814 1.578125l0 -9.671875l1.46875 0l0 1.46875q0.5625 -1.03125 1.03125 -1.359375q0.484375 -0.328125 1.0625 -0.328125q0.828125 0 1.6875 0.53125l-0.5625 1.515625q-0.609375 -0.359375 -1.203125 -0.359375q-0.546875 0 -0.96875 0.328125q-0.421875 0.328125 -0.609375 0.890625q-0.28125 0.875 -0.28125 1.921875l0 5.0625l-1.625 0zm12.8533325 -3.109375l1.6875 0.203125q-0.40625 1.484375 -1.484375 2.3125q-1.078125 0.8125 -2.765625 0.8125q-2.125 0 -3.375 -1.296875q-1.234375 -1.3125 -1.234375 -3.671875q0 -2.453125 1.25 -3.796875q1.265625 -1.34375 3.265625 -1.34375q1.9375 0 3.15625 1.328125q1.234375 1.3125 1.234375 3.703125q0 0.15625 0 0.4375l-7.21875 0q0.09375 1.59375 0.90625 2.453125q0.8125 0.84375 2.015625 0.84375q0.90625 0 1.546875 -0.46875q0.640625 -0.484375 1.015625 -1.515625zm-5.390625 -2.65625l5.40625 0q-0.109375 -1.21875 -0.625 -1.828125q-0.78125 -0.953125 -2.03125 -0.953125q-1.125 0 -1.90625 0.765625q-0.765625 0.75 -0.84375 2.015625zm15.453857 2.21875l1.609375 0.21875q-0.265625 1.65625 -1.359375 2.609375q-1.078125 0.9375 -2.671875 0.9375q-1.984375 0 -3.1875 -1.296875q-1.203125 -1.296875 -1.203125 -3.71875q0 -1.578125 0.515625 -2.75q0.515625 -1.171875 1.578125 -1.75q1.0625 -0.59375 2.3125 -0.59375q1.578125 0 2.578125 0.796875q1.0 0.796875 1.28125 2.265625l-1.59375 0.234375q-0.234375 -0.96875 -0.8125 -1.453125q-0.578125 -0.5 -1.390625 -0.5q-1.234375 0 -2.015625 0.890625q-0.78125 0.890625 -0.78125 2.8125q0 1.953125 0.75 2.84375q0.75 0.875 1.953125 0.875q0.96875 0 1.609375 -0.59375q0.65625 -0.59375 0.828125 -1.828125zm3.015625 -7.921875l0 -1.890625l1.640625 0l0 1.890625l-1.640625 0zm0 11.46875l0 -9.671875l1.640625 0l0 9.671875l-1.640625 0zm4.1447754 3.703125l0 -13.375l1.484375 0l0 1.25q0.53125 -0.734375 1.1875 -1.09375q0.671875 -0.375 1.625 -0.375q1.234375 0 2.171875 0.640625q0.953125 0.625 1.4375 1.796875q0.484375 1.15625 0.484375 2.546875q0 1.484375 -0.53125 2.671875q-0.53125 1.1875 -1.546875 1.828125q-1.015625 0.625 -2.140625 0.625q-0.8125 0 -1.46875 -0.34375q-0.65625 -0.34375 -1.0625 -0.875l0 4.703125l-1.640625 0zm1.484375 -8.484375q0 1.859375 0.75 2.765625q0.765625 0.890625 1.828125 0.890625q1.09375 0 1.875 -0.921875q0.78125 -0.9375 0.78125 -2.875q0 -1.84375 -0.765625 -2.765625q-0.75 -0.921875 -1.8125 -0.921875q-1.046875 0 -1.859375 0.984375q-0.796875 0.96875 -0.796875 2.84375zm8.891357 -6.6875l0 -1.890625l1.640625 0l0 1.890625l-1.640625 0zm0 11.46875l0 -9.671875l1.640625 0l0 9.671875l-1.640625 0zm10.769836 -3.109375l1.6875 0.203125q-0.40625 1.484375 -1.484375 2.3125q-1.078125 0.8125 -2.765625 0.8125q-2.125 0 -3.375 -1.296875q-1.234375 -1.3125 -1.234375 -3.671875q0 -2.453125 1.25 -3.796875q1.265625 -1.34375 3.265625 -1.34375q1.9375 0 3.15625 1.328125q1.234375 1.3125 1.234375 3.703125q0 0.15625 0 0.4375l-7.21875 0q0.09375 1.59375 0.90625 2.453125q0.8125 0.84375 2.015625 0.84375q0.90625 0 1.546875 -0.46875q0.640625 -0.484375 1.015625 -1.515625zm-5.390625 -2.65625l5.40625 0q-0.109375 -1.21875 -0.625 -1.828125q-0.78125 -0.953125 -2.03125 -0.953125q-1.125 0 -1.90625 0.765625q-0.765625 0.75 -0.84375 2.015625zm9.141357 5.765625l0 -9.671875l1.46875 0l0 1.375q1.0625 -1.59375 3.078125 -1.59375q0.875 0 1.609375 0.3125q0.734375 0.3125 1.09375 0.828125q0.375 0.5 0.515625 1.203125q0.09375 0.453125 0.09375 1.59375l0 5.953125l-1.640625 0l0 -5.890625q0 -1.0 -0.203125 -1.484375q-0.1875 -0.5 -0.671875 -0.796875q-0.484375 -0.296875 -1.140625 -0.296875q-1.046875 0 -1.8125 0.671875q-0.75 0.65625 -0.75 2.515625l0 5.28125l-1.640625 0zm13.953857 -1.46875l0.234375 1.453125q-0.6875 0.140625 -1.234375 0.140625q-0.890625 0 -1.390625 -0.28125q-0.484375 -0.28125 -0.6875 -0.734375q-0.203125 -0.46875 -0.203125 -1.9375l0 -5.578125l-1.203125 0l0 -1.265625l1.203125 0l0 -2.390625l1.625 -0.984375l0 3.375l1.65625 0l0 1.265625l-1.65625 0l0 5.671875q0 0.6875 0.078125 0.890625q0.09375 0.203125 0.28125 0.328125q0.203125 0.109375 0.578125 0.109375q0.265625 0 0.71875 -0.0625zm0.9489136 -1.421875l1.625 -0.25q0.125 0.96875 0.75 1.5q0.625 0.515625 1.75 0.515625q1.125 0 1.671875 -0.453125q0.546875 -0.46875 0.546875 -1.09375q0 -0.546875 -0.484375 -0.875q-0.328125 -0.21875 -1.671875 -0.546875q-1.8125 -0.46875 -2.515625 -0.796875q-0.6875 -0.328125 -1.046875 -0.90625q-0.359375 -0.59375 -0.359375 -1.3125q0 -0.640625 0.296875 -1.1875q0.296875 -0.5625 0.8125 -0.921875q0.375 -0.28125 1.03125 -0.46875q0.671875 -0.203125 1.421875 -0.203125q1.140625 0 2.0 0.328125q0.859375 0.328125 1.265625 0.890625q0.421875 0.5625 0.578125 1.5l-1.609375 0.21875q-0.109375 -0.75 -0.640625 -1.171875q-0.515625 -0.421875 -1.46875 -0.421875q-1.140625 0 -1.625 0.375q-0.46875 0.375 -0.46875 0.875q0 0.3125 0.1875 0.578125q0.203125 0.265625 0.640625 0.4375q0.234375 0.09375 1.4375 0.421875q1.75 0.453125 2.4375 0.75q0.6875 0.296875 1.078125 0.859375q0.390625 0.5625 0.390625 1.40625q0 0.828125 -0.484375 1.546875q-0.46875 0.71875 -1.375 1.125q-0.90625 0.390625 -2.046875 0.390625q-1.875 0 -2.875 -0.78125q-0.984375 -0.78125 -1.25 -2.328125zm11.0625 6.8125l-1.1875 0q2.734375 -4.375 2.734375 -8.75q0 -1.71875 -0.390625 -3.390625q-0.3125 -1.375 -0.875 -2.625q-0.359375 -0.828125 -1.46875 -2.734375l1.1875 0q1.703125 2.28125 2.53125 4.59375q0.6875 1.984375 0.6875 4.140625q0 2.46875 -0.9375 4.765625q-0.9375 2.296875 -2.28125 4.0zm7.8689575 -0.21875l-3.609375 0l0 -1.359375l1.96875 0l0 -14.34375l-1.96875 0l0 -1.359375l3.609375 0l0 17.0625z" fill-rule="nonzero"/><path fill="#000000" d="m434.98178 129.67345l1.765625 0.453125q-0.5625 2.171875 -2.0 3.328125q-1.4375 1.140625 -3.53125 1.140625q-2.15625 0 -3.515625 -0.875q-1.34375 -0.890625 -2.0625 -2.546875q-0.703125 -1.671875 -0.703125 -3.5937576q0 -2.078125 0.796875 -3.625q0.796875 -1.5625 2.265625 -2.359375q1.484375 -0.8125 3.25 -0.8125q2.0 0 3.359375 1.015625q1.375 1.015625 1.90625 2.875l-1.734375 0.40625q-0.46875 -1.453125 -1.359375 -2.109375q-0.875 -0.671875 -2.203125 -0.671875q-1.546875 0 -2.578125 0.734375q-1.03125 0.734375 -1.453125 1.984375q-0.421875 1.234375 -0.421875 2.5625q0 1.7031326 0.5 2.9687576q0.5 1.265625 1.546875 1.90625q1.046875 0.625 2.265625 0.625q1.484375 0 2.515625 -0.859375q1.03125 -0.859375 1.390625 -2.546875zm3.738556 4.6875l0 -13.359383l1.640625 0l0 4.796875q1.140625 -1.328125 2.890625 -1.328125q1.078125 0 1.859375 0.421875q0.796875 0.421875 1.140625 1.171875q0.34375 0.75 0.34375 2.1718826l0 6.125l-1.640625 0l0 -6.125q0 -1.2343826 -0.53125 -1.7968826q-0.53125 -0.5625 -1.515625 -0.5625q-0.71875 0 -1.359375 0.390625q-0.640625 0.375 -0.921875 1.015625q-0.265625 0.640625 -0.265625 1.7812576l0 5.296875l-1.640625 0zm16.688232 -1.1875q-0.921875 0.765625 -1.765625 1.09375q-0.828125 0.3125 -1.796875 0.3125q-1.59375 0 -2.453125 -0.78125q-0.859375 -0.78125 -0.859375 -1.984375q0 -0.71875 0.328125 -1.296875q0.328125 -0.59375 0.84375 -0.9375q0.53125 -0.359375 1.1875 -0.546875q0.46875 -0.125 1.453125 -0.25q1.984375 -0.234375 2.921875 -0.5625q0.015625 -0.34375763 0.015625 -0.42188263q0 -1.0 -0.46875 -1.421875q-0.625 -0.546875 -1.875 -0.546875q-1.15625 0 -1.703125 0.40625q-0.546875 0.40625 -0.8125 1.421875l-1.609375 -0.21875q0.21875 -1.015625 0.71875 -1.640625q0.5 -0.640625 1.453125 -0.984375q0.953125 -0.34375 2.1875 -0.34375q1.25 0 2.015625 0.296875q0.78125 0.28125 1.140625 0.734375q0.375 0.4375 0.515625 1.109375q0.078125 0.421875 0.078125 1.5156326l0 2.1875q0 2.28125 0.109375 2.890625q0.109375 0.59375 0.40625 1.15625l-1.703125 0q-0.265625 -0.515625 -0.328125 -1.1875zm-0.140625 -3.671875q-0.890625 0.375 -2.671875 0.625q-1.015625 0.140625 -1.4375 0.328125q-0.421875 0.1875 -0.65625 0.53125q-0.21875 0.34375 -0.21875 0.78125q0 0.65625 0.5 1.09375q0.5 0.4375 1.453125 0.4375q0.9375 0 1.671875 -0.40625q0.75 -0.421875 1.09375 -1.140625q0.265625 -0.5625 0.265625 -1.640625l0 -0.609375zm4.203827 -6.6093826l0 -1.890625l1.640625 0l0 1.890625l-1.640625 0zm0 11.468758l0 -9.671883l1.640625 0l0 9.671883l-1.640625 0zm4.1292114 0l0 -9.671883l1.46875 0l0 1.46875q0.5625 -1.03125 1.03125 -1.359375q0.484375 -0.328125 1.0625 -0.328125q0.828125 0 1.6875 0.53125l-0.5625 1.515625q-0.609375 -0.359375 -1.203125 -0.359375q-0.546875 0 -0.96875 0.328125q-0.421875 0.328125 -0.609375 0.890625q-0.28125 0.8750076 -0.28125 1.9218826l0 5.0625l-1.625 0zm4.993927 0.234375l3.875 -13.812508l1.3125 0l-3.859375 13.812508l-1.328125 0zm5.1520386 -0.234375l5.125 -13.359383l1.90625 0l5.46875 13.359383l-2.015625 0l-1.546875 -4.046875l-5.59375 0l-1.46875 4.046875l-1.875 0zm3.859375 -5.484375l4.53125 0l-1.40625 -3.7031326q-0.625 -1.6875 -0.9375 -2.765625q-0.265625 1.28125 -0.71875 2.546875l-1.46875 3.9218826zm16.115448 5.484375l0 -1.21875q-0.90625 1.4375 -2.703125 1.4375q-1.15625 0 -2.125 -0.640625q-0.96875 -0.640625 -1.5 -1.78125q-0.53125 -1.140625 -0.53125 -2.625q0 -1.453125 0.484375 -2.6250076q0.484375 -1.1875 1.4375 -1.8125q0.96875 -0.625 2.171875 -0.625q0.875 0 1.546875 0.375q0.6875 0.359375 1.109375 0.953125l0 -4.796875l1.640625 0l0 13.359383l-1.53125 0zm-5.171875 -4.828125q0 1.859375 0.78125 2.78125q0.78125 0.921875 1.84375 0.921875q1.078125 0 1.828125 -0.875q0.75 -0.890625 0.75 -2.6875q0 -1.9843826 -0.765625 -2.9062576q-0.765625 -0.9375 -1.890625 -0.9375q-1.078125 0 -1.8125 0.890625q-0.734375 0.890625 -0.734375 2.8125076zm11.969482 4.828125l-3.6875 -9.671883l1.734375 0l2.078125 5.7968826q0.328125 0.9375 0.625 1.9375q0.203125 -0.765625 0.609375 -1.828125l2.140625 -5.9062576l1.6875 0l-3.65625 9.671883l-1.53125 0zm6.640625 -11.468758l0 -1.890625l1.640625 0l0 1.890625l-1.640625 0zm0 11.468758l0 -9.671883l1.640625 0l0 9.671883l-1.640625 0zm3.488556 -2.890625l1.625 -0.25q0.125 0.96875 0.75 1.5q0.625 0.515625 1.75 0.515625q1.125 0 1.671875 -0.453125q0.546875 -0.46875 0.546875 -1.09375q0 -0.546875 -0.484375 -0.875q-0.328125 -0.21875 -1.671875 -0.546875q-1.8125 -0.46875 -2.515625 -0.796875q-0.6875 -0.328125 -1.046875 -0.90625q-0.359375 -0.5937576 -0.359375 -1.3125076q0 -0.640625 0.296875 -1.1875q0.296875 -0.5625 0.8125 -0.921875q0.375 -0.28125 1.03125 -0.46875q0.671875 -0.203125 1.421875 -0.203125q1.140625 0 2.0 0.328125q0.859375 0.328125 1.265625 0.890625q0.421875 0.5625 0.578125 1.5l-1.609375 0.21875q-0.109375 -0.75 -0.640625 -1.171875q-0.515625 -0.421875 -1.46875 -0.421875q-1.140625 0 -1.625 0.375q-0.46875 0.375 -0.46875 0.875q0 0.3125 0.1875 0.578125q0.203125 0.265625 0.640625 0.43750763q0.234375 0.09375 1.4375 0.421875q1.75 0.453125 2.4375 0.75q0.6875 0.296875 1.078125 0.859375q0.390625 0.5625 0.390625 1.40625q0 0.828125 -0.484375 1.546875q-0.46875 0.71875 -1.375 1.125q-0.90625 0.390625 -2.046875 0.390625q-1.875 0 -2.875 -0.78125q-0.984375 -0.78125 -1.25 -2.328125zm9.375 -1.953125q0 -2.6875076 1.484375 -3.9687576q1.25 -1.078125 3.046875 -1.078125q2.0 0 3.265625 1.3125q1.265625 1.296875 1.265625 3.6093826q0 1.859375 -0.5625 2.9375q-0.5625 1.0625 -1.640625 1.65625q-1.0625 0.59375 -2.328125 0.59375q-2.03125 0 -3.28125 -1.296875q-1.25 -1.3125 -1.25 -3.765625zm1.6875 0q0 1.859375 0.796875 2.796875q0.8125 0.921875 2.046875 0.921875q1.21875 0 2.03125 -0.921875q0.8125 -0.9375 0.8125 -2.84375q0 -1.7968826 -0.8125 -2.7187576q-0.8125 -0.921875 -2.03125 -0.921875q-1.234375 0 -2.046875 0.921875q-0.796875 0.90625 -0.796875 2.7656326zm9.281982 4.84375l0 -9.671883l1.46875 0l0 1.46875q0.5625 -1.03125 1.03125 -1.359375q0.484375 -0.328125 1.0625 -0.328125q0.828125 0 1.6875 0.53125l-0.5625 1.515625q-0.609375 -0.359375 -1.203125 -0.359375q-0.546875 0 -0.96875 0.328125q-0.421875 0.328125 -0.609375 0.890625q-0.28125 0.8750076 -0.28125 1.9218826l0 5.0625l-1.625 0z" fill-rule="nonzero"/><path fill="#eeeeee" d="m160.4252 288.1076l639.14966 0l0 188.0l-639.14966 0z" fill-rule="evenodd"/><path stroke="#595959" stroke-width="1.0" stroke-linejoin="round" stroke-linecap="butt" d="m160.4252 288.1076l639.14966 0l0 188.0l-639.14966 0z" fill-rule="evenodd"/><path fill="#eeeeee" d="m160.4252 171.66405l639.14966 0l0 81.98425l-639.14966 0z" fill-rule="evenodd"/><path stroke="#595959" stroke-width="1.0" stroke-linejoin="round" stroke-linecap="butt" d="m160.4252 171.66405l639.14966 0l0 81.98425l-639.14966 0z" fill-rule="evenodd"/><path fill="#000000" fill-opacity="0.0" d="m480.0 171.66405l0 81.98425" fill-rule="evenodd"/><path stroke="#595959" stroke-width="1.0" stroke-linejoin="round" stroke-linecap="butt" d="m480.0 171.66405l0 81.98425" fill-rule="evenodd"/></g></svg>